<svg xmlns="http://www.w3.org/2000/svg" width="50" height="50" viewBox="45.448 45.958 50 50" enable-background="new 45.448 45.958 50 50"><g fill="#E20177"><path d="M56.603 67.374c-2.812.047-4.216 2.286-4.24 4.549-.024 2.357 1.453 4.715 4.407 4.643 2.144-.047 4.216-1.571 4.216-4.595.001-3.097-2.191-4.621-4.383-4.597"/><path d="M90.8 62.115c-1.663-.166-2.903.138-2.929 2.026v1.323h2.371v2.04h-2.371v10.919h-2.353v-10.919h-2.354v-2.04h2.354v-1.31c.02-3.083 1.866-4.27 5.281-4.007v1.968zm-13.051 16.302h-1.787l-1.572-5.049-1.119-3.881-1.119 3.881-1.597 5.049h-1.762l-4.336-12.978h2.477l1.168 3.525c.62 1.857 1.12 3.69 1.548 5.524l2.573-8.692h2.073l2.596 8.692c.405-1.834.93-3.667 1.524-5.524.405-1.167.81-2.358 1.191-3.525h2.478l-4.336 12.978zm-14.428.007h-2.334v-1.738c-.929 1.404-2.692 1.928-4.312 1.952-4.502 0-6.646-3.167-6.646-6.715 0-3.477 2.264-6.597 6.623-6.597 1.596 0 3.216.358 4.335 1.881v-7.009h2.334v18.226zm6.998-32.465c-.913.005-1.825.063-2.733.167-5.412.622-10.661 3.002-14.812 7.152-9.768 9.763-9.768 25.593 0 35.357 9.768 9.763 25.604 9.763 35.372 0 4.149-4.148 6.53-9.394 7.153-14.8.031-.267.049-.532.07-.799.055-.671.075-1.343.078-2.016v-25.062l-25.128.001z"/></g></svg>